<mxfile host="app.diagrams.net" modified="2021-12-17T19:04:02.156Z" agent="5.0 (Windows NT 10.0; Win64; x64) AppleWebKit/537.36 (KHTML, like Gecko) Chrome/96.0.4664.110 Safari/537.36" etag="N9lUJoqRzFEWhFdwHtTt" version="15.9.6" type="github">
  <diagram id="N6lsiD8oopJrpO06N1Q2" name="Page-1">
    <mxGraphModel dx="4027" dy="802" grid="1" gridSize="10" guides="1" tooltips="1" connect="1" arrows="1" fold="1" page="1" pageScale="1" pageWidth="827" pageHeight="1169" math="0" shadow="0">
      <root>
        <mxCell id="0" />
        <mxCell id="1" parent="0" />
        <mxCell id="SOVXefjvVhWVXNpoaT12-18" value="Benutzer" style="shape=table;startSize=30;container=1;collapsible=0;childLayout=tableLayout;fillColor=#dae8fc;strokeColor=#6c8ebf;" parent="1" vertex="1">
          <mxGeometry x="-2400" y="80" width="520" height="400" as="geometry" />
        </mxCell>
        <mxCell id="SOVXefjvVhWVXNpoaT12-19" value="" style="shape=partialRectangle;collapsible=0;dropTarget=0;pointerEvents=0;fillColor=none;top=0;left=0;bottom=0;right=0;points=[[0,0.5],[1,0.5]];portConstraint=eastwest;" parent="SOVXefjvVhWVXNpoaT12-18" vertex="1">
          <mxGeometry y="30" width="520" height="50" as="geometry" />
        </mxCell>
        <mxCell id="SOVXefjvVhWVXNpoaT12-20" value="HTTP Methode" style="shape=partialRectangle;html=1;whiteSpace=wrap;connectable=0;overflow=hidden;fillColor=#f5f5f5;top=0;left=0;bottom=0;right=0;pointerEvents=1;fontColor=#333333;strokeColor=#666666;" parent="SOVXefjvVhWVXNpoaT12-19" vertex="1">
          <mxGeometry width="80" height="50" as="geometry">
            <mxRectangle width="80" height="50" as="alternateBounds" />
          </mxGeometry>
        </mxCell>
        <mxCell id="SOVXefjvVhWVXNpoaT12-21" value="Route" style="shape=partialRectangle;html=1;whiteSpace=wrap;connectable=0;overflow=hidden;fillColor=#f5f5f5;top=0;left=0;bottom=0;right=0;pointerEvents=1;fontColor=#333333;strokeColor=#666666;" parent="SOVXefjvVhWVXNpoaT12-19" vertex="1">
          <mxGeometry x="80" width="160" height="50" as="geometry">
            <mxRectangle width="160" height="50" as="alternateBounds" />
          </mxGeometry>
        </mxCell>
        <mxCell id="SOVXefjvVhWVXNpoaT12-22" value="Beschreibung" style="shape=partialRectangle;html=1;whiteSpace=wrap;connectable=0;overflow=hidden;fillColor=#f5f5f5;top=0;left=0;bottom=0;right=0;pointerEvents=1;fontColor=#333333;strokeColor=#666666;" parent="SOVXefjvVhWVXNpoaT12-19" vertex="1">
          <mxGeometry x="240" width="280" height="50" as="geometry">
            <mxRectangle width="280" height="50" as="alternateBounds" />
          </mxGeometry>
        </mxCell>
        <mxCell id="SOVXefjvVhWVXNpoaT12-23" value="" style="shape=partialRectangle;collapsible=0;dropTarget=0;pointerEvents=0;fillColor=none;top=0;left=0;bottom=0;right=0;points=[[0,0.5],[1,0.5]];portConstraint=eastwest;" parent="SOVXefjvVhWVXNpoaT12-18" vertex="1">
          <mxGeometry y="80" width="520" height="39" as="geometry" />
        </mxCell>
        <mxCell id="SOVXefjvVhWVXNpoaT12-24" value="POST" style="shape=partialRectangle;html=1;whiteSpace=wrap;connectable=0;overflow=hidden;fillColor=none;top=0;left=0;bottom=0;right=0;pointerEvents=1;" parent="SOVXefjvVhWVXNpoaT12-23" vertex="1">
          <mxGeometry width="80" height="39" as="geometry">
            <mxRectangle width="80" height="39" as="alternateBounds" />
          </mxGeometry>
        </mxCell>
        <mxCell id="SOVXefjvVhWVXNpoaT12-25" value="/user" style="shape=partialRectangle;html=1;whiteSpace=wrap;connectable=0;overflow=hidden;fillColor=none;top=0;left=0;bottom=0;right=0;pointerEvents=1;" parent="SOVXefjvVhWVXNpoaT12-23" vertex="1">
          <mxGeometry x="80" width="160" height="39" as="geometry">
            <mxRectangle width="160" height="39" as="alternateBounds" />
          </mxGeometry>
        </mxCell>
        <mxCell id="SOVXefjvVhWVXNpoaT12-26" value="User wird erstellt" style="shape=partialRectangle;html=1;whiteSpace=wrap;connectable=0;overflow=hidden;fillColor=none;top=0;left=0;bottom=0;right=0;pointerEvents=1;" parent="SOVXefjvVhWVXNpoaT12-23" vertex="1">
          <mxGeometry x="240" width="280" height="39" as="geometry">
            <mxRectangle width="280" height="39" as="alternateBounds" />
          </mxGeometry>
        </mxCell>
        <mxCell id="SOVXefjvVhWVXNpoaT12-27" value="" style="shape=partialRectangle;collapsible=0;dropTarget=0;pointerEvents=0;fillColor=none;top=0;left=0;bottom=0;right=0;points=[[0,0.5],[1,0.5]];portConstraint=eastwest;" parent="SOVXefjvVhWVXNpoaT12-18" vertex="1">
          <mxGeometry y="119" width="520" height="37" as="geometry" />
        </mxCell>
        <mxCell id="SOVXefjvVhWVXNpoaT12-28" value="PUT" style="shape=partialRectangle;html=1;whiteSpace=wrap;connectable=0;overflow=hidden;fillColor=none;top=0;left=0;bottom=0;right=0;pointerEvents=1;" parent="SOVXefjvVhWVXNpoaT12-27" vertex="1">
          <mxGeometry width="80" height="37" as="geometry">
            <mxRectangle width="80" height="37" as="alternateBounds" />
          </mxGeometry>
        </mxCell>
        <mxCell id="SOVXefjvVhWVXNpoaT12-29" value="/user/:id" style="shape=partialRectangle;html=1;whiteSpace=wrap;connectable=0;overflow=hidden;fillColor=none;top=0;left=0;bottom=0;right=0;pointerEvents=1;" parent="SOVXefjvVhWVXNpoaT12-27" vertex="1">
          <mxGeometry x="80" width="160" height="37" as="geometry">
            <mxRectangle width="160" height="37" as="alternateBounds" />
          </mxGeometry>
        </mxCell>
        <mxCell id="SOVXefjvVhWVXNpoaT12-30" value="Userdaten ändern" style="shape=partialRectangle;html=1;whiteSpace=wrap;connectable=0;overflow=hidden;fillColor=none;top=0;left=0;bottom=0;right=0;pointerEvents=1;" parent="SOVXefjvVhWVXNpoaT12-27" vertex="1">
          <mxGeometry x="240" width="280" height="37" as="geometry">
            <mxRectangle width="280" height="37" as="alternateBounds" />
          </mxGeometry>
        </mxCell>
        <mxCell id="SOVXefjvVhWVXNpoaT12-31" value="" style="shape=partialRectangle;collapsible=0;dropTarget=0;pointerEvents=0;fillColor=none;top=0;left=0;bottom=0;right=0;points=[[0,0.5],[1,0.5]];portConstraint=eastwest;" parent="SOVXefjvVhWVXNpoaT12-18" vertex="1">
          <mxGeometry y="156" width="520" height="44" as="geometry" />
        </mxCell>
        <mxCell id="SOVXefjvVhWVXNpoaT12-32" value="GET" style="shape=partialRectangle;html=1;whiteSpace=wrap;connectable=0;overflow=hidden;fillColor=none;top=0;left=0;bottom=0;right=0;pointerEvents=1;" parent="SOVXefjvVhWVXNpoaT12-31" vertex="1">
          <mxGeometry width="80" height="44" as="geometry">
            <mxRectangle width="80" height="44" as="alternateBounds" />
          </mxGeometry>
        </mxCell>
        <mxCell id="SOVXefjvVhWVXNpoaT12-33" value="/user/:id" style="shape=partialRectangle;html=1;whiteSpace=wrap;connectable=0;overflow=hidden;fillColor=none;top=0;left=0;bottom=0;right=0;pointerEvents=1;" parent="SOVXefjvVhWVXNpoaT12-31" vertex="1">
          <mxGeometry x="80" width="160" height="44" as="geometry">
            <mxRectangle width="160" height="44" as="alternateBounds" />
          </mxGeometry>
        </mxCell>
        <mxCell id="SOVXefjvVhWVXNpoaT12-34" value="Userdaten eines bestimmten Users holen" style="shape=partialRectangle;html=1;whiteSpace=wrap;connectable=0;overflow=hidden;fillColor=none;top=0;left=0;bottom=0;right=0;pointerEvents=1;" parent="SOVXefjvVhWVXNpoaT12-31" vertex="1">
          <mxGeometry x="240" width="280" height="44" as="geometry">
            <mxRectangle width="280" height="44" as="alternateBounds" />
          </mxGeometry>
        </mxCell>
        <mxCell id="SOVXefjvVhWVXNpoaT12-35" value="" style="shape=partialRectangle;collapsible=0;dropTarget=0;pointerEvents=0;fillColor=none;top=0;left=0;bottom=0;right=0;points=[[0,0.5],[1,0.5]];portConstraint=eastwest;" parent="SOVXefjvVhWVXNpoaT12-18" vertex="1">
          <mxGeometry y="200" width="520" height="40" as="geometry" />
        </mxCell>
        <mxCell id="SOVXefjvVhWVXNpoaT12-36" value="DELETE" style="shape=partialRectangle;html=1;whiteSpace=wrap;connectable=0;overflow=hidden;fillColor=none;top=0;left=0;bottom=0;right=0;pointerEvents=1;" parent="SOVXefjvVhWVXNpoaT12-35" vertex="1">
          <mxGeometry width="80" height="40" as="geometry">
            <mxRectangle width="80" height="40" as="alternateBounds" />
          </mxGeometry>
        </mxCell>
        <mxCell id="SOVXefjvVhWVXNpoaT12-37" value="/user/:id" style="shape=partialRectangle;html=1;whiteSpace=wrap;connectable=0;overflow=hidden;fillColor=none;top=0;left=0;bottom=0;right=0;pointerEvents=1;" parent="SOVXefjvVhWVXNpoaT12-35" vertex="1">
          <mxGeometry x="80" width="160" height="40" as="geometry">
            <mxRectangle width="160" height="40" as="alternateBounds" />
          </mxGeometry>
        </mxCell>
        <mxCell id="SOVXefjvVhWVXNpoaT12-38" value="User wird gelöscht" style="shape=partialRectangle;html=1;whiteSpace=wrap;connectable=0;overflow=hidden;fillColor=none;top=0;left=0;bottom=0;right=0;pointerEvents=1;" parent="SOVXefjvVhWVXNpoaT12-35" vertex="1">
          <mxGeometry x="240" width="280" height="40" as="geometry">
            <mxRectangle width="280" height="40" as="alternateBounds" />
          </mxGeometry>
        </mxCell>
        <mxCell id="SOVXefjvVhWVXNpoaT12-39" value="" style="shape=partialRectangle;collapsible=0;dropTarget=0;pointerEvents=0;fillColor=none;top=0;left=0;bottom=0;right=0;points=[[0,0.5],[1,0.5]];portConstraint=eastwest;" parent="SOVXefjvVhWVXNpoaT12-18" vertex="1">
          <mxGeometry y="240" width="520" height="40" as="geometry" />
        </mxCell>
        <mxCell id="SOVXefjvVhWVXNpoaT12-40" value="POST" style="shape=partialRectangle;html=1;whiteSpace=wrap;connectable=0;overflow=hidden;fillColor=none;top=0;left=0;bottom=0;right=0;pointerEvents=1;" parent="SOVXefjvVhWVXNpoaT12-39" vertex="1">
          <mxGeometry width="80" height="40" as="geometry">
            <mxRectangle width="80" height="40" as="alternateBounds" />
          </mxGeometry>
        </mxCell>
        <mxCell id="SOVXefjvVhWVXNpoaT12-41" value="/user/:id/Translation/:id" style="shape=partialRectangle;html=1;whiteSpace=wrap;connectable=0;overflow=hidden;fillColor=none;top=0;left=0;bottom=0;right=0;pointerEvents=1;" parent="SOVXefjvVhWVXNpoaT12-39" vertex="1">
          <mxGeometry x="80" width="160" height="40" as="geometry">
            <mxRectangle width="160" height="40" as="alternateBounds" />
          </mxGeometry>
        </mxCell>
        <mxCell id="SOVXefjvVhWVXNpoaT12-42" value="User gibt Suchwort in englisch ein" style="shape=partialRectangle;html=1;whiteSpace=wrap;connectable=0;overflow=hidden;fillColor=none;top=0;left=0;bottom=0;right=0;pointerEvents=1;" parent="SOVXefjvVhWVXNpoaT12-39" vertex="1">
          <mxGeometry x="240" width="280" height="40" as="geometry">
            <mxRectangle width="280" height="40" as="alternateBounds" />
          </mxGeometry>
        </mxCell>
        <mxCell id="SOVXefjvVhWVXNpoaT12-43" style="shape=partialRectangle;collapsible=0;dropTarget=0;pointerEvents=0;fillColor=none;top=0;left=0;bottom=0;right=0;points=[[0,0.5],[1,0.5]];portConstraint=eastwest;" parent="SOVXefjvVhWVXNpoaT12-18" vertex="1">
          <mxGeometry y="280" width="520" height="40" as="geometry" />
        </mxCell>
        <mxCell id="SOVXefjvVhWVXNpoaT12-44" value="GET" style="shape=partialRectangle;html=1;whiteSpace=wrap;connectable=0;overflow=hidden;fillColor=none;top=0;left=0;bottom=0;right=0;pointerEvents=1;" parent="SOVXefjvVhWVXNpoaT12-43" vertex="1">
          <mxGeometry width="80" height="40" as="geometry">
            <mxRectangle width="80" height="40" as="alternateBounds" />
          </mxGeometry>
        </mxCell>
        <mxCell id="SOVXefjvVhWVXNpoaT12-45" value="/user/:id/Translation" style="shape=partialRectangle;html=1;whiteSpace=wrap;connectable=0;overflow=hidden;fillColor=none;top=0;left=0;bottom=0;right=0;pointerEvents=1;" parent="SOVXefjvVhWVXNpoaT12-43" vertex="1">
          <mxGeometry x="80" width="160" height="40" as="geometry">
            <mxRectangle width="160" height="40" as="alternateBounds" />
          </mxGeometry>
        </mxCell>
        <mxCell id="SOVXefjvVhWVXNpoaT12-46" value="&amp;nbsp;User bekommt Übersetzung in deutsch angezeigt" style="shape=partialRectangle;html=1;whiteSpace=wrap;connectable=0;overflow=hidden;fillColor=none;top=0;left=0;bottom=0;right=0;pointerEvents=1;" parent="SOVXefjvVhWVXNpoaT12-43" vertex="1">
          <mxGeometry x="240" width="280" height="40" as="geometry">
            <mxRectangle width="280" height="40" as="alternateBounds" />
          </mxGeometry>
        </mxCell>
        <mxCell id="7HVum3_ixfd8tOSZu9AS-34" style="shape=partialRectangle;collapsible=0;dropTarget=0;pointerEvents=0;fillColor=none;top=0;left=0;bottom=0;right=0;points=[[0,0.5],[1,0.5]];portConstraint=eastwest;" vertex="1" parent="SOVXefjvVhWVXNpoaT12-18">
          <mxGeometry y="320" width="520" height="40" as="geometry" />
        </mxCell>
        <mxCell id="7HVum3_ixfd8tOSZu9AS-35" value="POST" style="shape=partialRectangle;html=1;whiteSpace=wrap;connectable=0;overflow=hidden;fillColor=none;top=0;left=0;bottom=0;right=0;pointerEvents=1;" vertex="1" parent="7HVum3_ixfd8tOSZu9AS-34">
          <mxGeometry width="80" height="40" as="geometry">
            <mxRectangle width="80" height="40" as="alternateBounds" />
          </mxGeometry>
        </mxCell>
        <mxCell id="7HVum3_ixfd8tOSZu9AS-36" value="/user/:id/Zuweisung" style="shape=partialRectangle;html=1;whiteSpace=wrap;connectable=0;overflow=hidden;fillColor=none;top=0;left=0;bottom=0;right=0;pointerEvents=1;" vertex="1" parent="7HVum3_ixfd8tOSZu9AS-34">
          <mxGeometry x="80" width="160" height="40" as="geometry">
            <mxRectangle width="160" height="40" as="alternateBounds" />
          </mxGeometry>
        </mxCell>
        <mxCell id="7HVum3_ixfd8tOSZu9AS-37" value="&amp;nbsp;User speichert Vokabel" style="shape=partialRectangle;html=1;whiteSpace=wrap;connectable=0;overflow=hidden;fillColor=none;top=0;left=0;bottom=0;right=0;pointerEvents=1;" vertex="1" parent="7HVum3_ixfd8tOSZu9AS-34">
          <mxGeometry x="240" width="280" height="40" as="geometry">
            <mxRectangle width="280" height="40" as="alternateBounds" />
          </mxGeometry>
        </mxCell>
        <mxCell id="7HVum3_ixfd8tOSZu9AS-38" style="shape=partialRectangle;collapsible=0;dropTarget=0;pointerEvents=0;fillColor=none;top=0;left=0;bottom=0;right=0;points=[[0,0.5],[1,0.5]];portConstraint=eastwest;" vertex="1" parent="SOVXefjvVhWVXNpoaT12-18">
          <mxGeometry y="360" width="520" height="40" as="geometry" />
        </mxCell>
        <mxCell id="7HVum3_ixfd8tOSZu9AS-39" value="GET" style="shape=partialRectangle;html=1;whiteSpace=wrap;connectable=0;overflow=hidden;fillColor=none;top=0;left=0;bottom=0;right=0;pointerEvents=1;" vertex="1" parent="7HVum3_ixfd8tOSZu9AS-38">
          <mxGeometry width="80" height="40" as="geometry">
            <mxRectangle width="80" height="40" as="alternateBounds" />
          </mxGeometry>
        </mxCell>
        <mxCell id="7HVum3_ixfd8tOSZu9AS-40" value="/user/Zuweisung" style="shape=partialRectangle;html=1;whiteSpace=wrap;connectable=0;overflow=hidden;fillColor=none;top=0;left=0;bottom=0;right=0;pointerEvents=1;" vertex="1" parent="7HVum3_ixfd8tOSZu9AS-38">
          <mxGeometry x="80" width="160" height="40" as="geometry">
            <mxRectangle width="160" height="40" as="alternateBounds" />
          </mxGeometry>
        </mxCell>
        <mxCell id="7HVum3_ixfd8tOSZu9AS-41" value="Vokabelliste des Users wird angezeigt" style="shape=partialRectangle;html=1;whiteSpace=wrap;connectable=0;overflow=hidden;fillColor=none;top=0;left=0;bottom=0;right=0;pointerEvents=1;" vertex="1" parent="7HVum3_ixfd8tOSZu9AS-38">
          <mxGeometry x="240" width="280" height="40" as="geometry">
            <mxRectangle width="280" height="40" as="alternateBounds" />
          </mxGeometry>
        </mxCell>
        <mxCell id="SOVXefjvVhWVXNpoaT12-47" value="Zuweisung Benutzer_ eigene Vokabeln" style="shape=table;startSize=30;container=1;collapsible=0;childLayout=tableLayout;fillColor=#dae8fc;strokeColor=#6c8ebf;" parent="1" vertex="1">
          <mxGeometry x="-2400" y="920" width="520" height="242" as="geometry" />
        </mxCell>
        <mxCell id="SOVXefjvVhWVXNpoaT12-48" value="" style="shape=partialRectangle;collapsible=0;dropTarget=0;pointerEvents=0;fillColor=none;top=0;left=0;bottom=0;right=0;points=[[0,0.5],[1,0.5]];portConstraint=eastwest;" parent="SOVXefjvVhWVXNpoaT12-47" vertex="1">
          <mxGeometry y="30" width="520" height="50" as="geometry" />
        </mxCell>
        <mxCell id="SOVXefjvVhWVXNpoaT12-49" value="HTTP Methode" style="shape=partialRectangle;html=1;whiteSpace=wrap;connectable=0;overflow=hidden;fillColor=#f5f5f5;top=0;left=0;bottom=0;right=0;pointerEvents=1;fontColor=#333333;strokeColor=#666666;" parent="SOVXefjvVhWVXNpoaT12-48" vertex="1">
          <mxGeometry width="80" height="50" as="geometry">
            <mxRectangle width="80" height="50" as="alternateBounds" />
          </mxGeometry>
        </mxCell>
        <mxCell id="SOVXefjvVhWVXNpoaT12-50" value="Route" style="shape=partialRectangle;html=1;whiteSpace=wrap;connectable=0;overflow=hidden;fillColor=#f5f5f5;top=0;left=0;bottom=0;right=0;pointerEvents=1;fontColor=#333333;strokeColor=#666666;" parent="SOVXefjvVhWVXNpoaT12-48" vertex="1">
          <mxGeometry x="80" width="160" height="50" as="geometry">
            <mxRectangle width="160" height="50" as="alternateBounds" />
          </mxGeometry>
        </mxCell>
        <mxCell id="SOVXefjvVhWVXNpoaT12-51" value="Beschreibung" style="shape=partialRectangle;html=1;whiteSpace=wrap;connectable=0;overflow=hidden;fillColor=#f5f5f5;top=0;left=0;bottom=0;right=0;pointerEvents=1;fontColor=#333333;strokeColor=#666666;" parent="SOVXefjvVhWVXNpoaT12-48" vertex="1">
          <mxGeometry x="240" width="280" height="50" as="geometry">
            <mxRectangle width="280" height="50" as="alternateBounds" />
          </mxGeometry>
        </mxCell>
        <mxCell id="SOVXefjvVhWVXNpoaT12-60" value="" style="shape=partialRectangle;collapsible=0;dropTarget=0;pointerEvents=0;fillColor=none;top=0;left=0;bottom=0;right=0;points=[[0,0.5],[1,0.5]];portConstraint=eastwest;" parent="SOVXefjvVhWVXNpoaT12-47" vertex="1">
          <mxGeometry y="80" width="520" height="41" as="geometry" />
        </mxCell>
        <mxCell id="SOVXefjvVhWVXNpoaT12-61" value="PUT" style="shape=partialRectangle;html=1;whiteSpace=wrap;connectable=0;overflow=hidden;fillColor=none;top=0;left=0;bottom=0;right=0;pointerEvents=1;" parent="SOVXefjvVhWVXNpoaT12-60" vertex="1">
          <mxGeometry width="80" height="41" as="geometry">
            <mxRectangle width="80" height="41" as="alternateBounds" />
          </mxGeometry>
        </mxCell>
        <mxCell id="SOVXefjvVhWVXNpoaT12-62" value="/&lt;span&gt;Zuweisung&lt;/span&gt;" style="shape=partialRectangle;html=1;whiteSpace=wrap;connectable=0;overflow=hidden;fillColor=none;top=0;left=0;bottom=0;right=0;pointerEvents=1;" parent="SOVXefjvVhWVXNpoaT12-60" vertex="1">
          <mxGeometry x="80" width="160" height="41" as="geometry">
            <mxRectangle width="160" height="41" as="alternateBounds" />
          </mxGeometry>
        </mxCell>
        <mxCell id="SOVXefjvVhWVXNpoaT12-63" value="Bewertungspunktestand ändern" style="shape=partialRectangle;html=1;whiteSpace=wrap;connectable=0;overflow=hidden;fillColor=none;top=0;left=0;bottom=0;right=0;pointerEvents=1;" parent="SOVXefjvVhWVXNpoaT12-60" vertex="1">
          <mxGeometry x="240" width="280" height="41" as="geometry">
            <mxRectangle width="280" height="41" as="alternateBounds" />
          </mxGeometry>
        </mxCell>
        <mxCell id="SOVXefjvVhWVXNpoaT12-64" value="" style="shape=partialRectangle;collapsible=0;dropTarget=0;pointerEvents=0;fillColor=none;top=0;left=0;bottom=0;right=0;points=[[0,0.5],[1,0.5]];portConstraint=eastwest;" parent="SOVXefjvVhWVXNpoaT12-47" vertex="1">
          <mxGeometry y="121" width="520" height="40" as="geometry" />
        </mxCell>
        <mxCell id="SOVXefjvVhWVXNpoaT12-65" value="GET" style="shape=partialRectangle;html=1;whiteSpace=wrap;connectable=0;overflow=hidden;fillColor=none;top=0;left=0;bottom=0;right=0;pointerEvents=1;" parent="SOVXefjvVhWVXNpoaT12-64" vertex="1">
          <mxGeometry width="80" height="40" as="geometry">
            <mxRectangle width="80" height="40" as="alternateBounds" />
          </mxGeometry>
        </mxCell>
        <mxCell id="SOVXefjvVhWVXNpoaT12-66" value="/Zuweisung/:id" style="shape=partialRectangle;html=1;whiteSpace=wrap;connectable=0;overflow=hidden;fillColor=none;top=0;left=0;bottom=0;right=0;pointerEvents=1;" parent="SOVXefjvVhWVXNpoaT12-64" vertex="1">
          <mxGeometry x="80" width="160" height="40" as="geometry">
            <mxRectangle width="160" height="40" as="alternateBounds" />
          </mxGeometry>
        </mxCell>
        <mxCell id="SOVXefjvVhWVXNpoaT12-67" value="Zuweisungen eines Benutzers wird als Liste abgerufen" style="shape=partialRectangle;html=1;whiteSpace=wrap;connectable=0;overflow=hidden;fillColor=none;top=0;left=0;bottom=0;right=0;pointerEvents=1;" parent="SOVXefjvVhWVXNpoaT12-64" vertex="1">
          <mxGeometry x="240" width="280" height="40" as="geometry">
            <mxRectangle width="280" height="40" as="alternateBounds" />
          </mxGeometry>
        </mxCell>
        <mxCell id="SOVXefjvVhWVXNpoaT12-68" value="" style="shape=partialRectangle;collapsible=0;dropTarget=0;pointerEvents=0;fillColor=none;top=0;left=0;bottom=0;right=0;points=[[0,0.5],[1,0.5]];portConstraint=eastwest;" parent="SOVXefjvVhWVXNpoaT12-47" vertex="1">
          <mxGeometry y="161" width="520" height="40" as="geometry" />
        </mxCell>
        <mxCell id="SOVXefjvVhWVXNpoaT12-69" value="DELETE" style="shape=partialRectangle;html=1;whiteSpace=wrap;connectable=0;overflow=hidden;fillColor=none;top=0;left=0;bottom=0;right=0;pointerEvents=1;" parent="SOVXefjvVhWVXNpoaT12-68" vertex="1">
          <mxGeometry width="80" height="40" as="geometry">
            <mxRectangle width="80" height="40" as="alternateBounds" />
          </mxGeometry>
        </mxCell>
        <mxCell id="SOVXefjvVhWVXNpoaT12-70" value="/Zuweisung" style="shape=partialRectangle;html=1;whiteSpace=wrap;connectable=0;overflow=hidden;fillColor=none;top=0;left=0;bottom=0;right=0;pointerEvents=1;" parent="SOVXefjvVhWVXNpoaT12-68" vertex="1">
          <mxGeometry x="80" width="160" height="40" as="geometry">
            <mxRectangle width="160" height="40" as="alternateBounds" />
          </mxGeometry>
        </mxCell>
        <mxCell id="SOVXefjvVhWVXNpoaT12-71" value="Zuweisung wird gelöscht" style="shape=partialRectangle;html=1;whiteSpace=wrap;connectable=0;overflow=hidden;fillColor=none;top=0;left=0;bottom=0;right=0;pointerEvents=1;" parent="SOVXefjvVhWVXNpoaT12-68" vertex="1">
          <mxGeometry x="240" width="280" height="40" as="geometry">
            <mxRectangle width="280" height="40" as="alternateBounds" />
          </mxGeometry>
        </mxCell>
        <mxCell id="SOVXefjvVhWVXNpoaT12-72" style="shape=partialRectangle;collapsible=0;dropTarget=0;pointerEvents=0;fillColor=none;top=0;left=0;bottom=0;right=0;points=[[0,0.5],[1,0.5]];portConstraint=eastwest;" parent="SOVXefjvVhWVXNpoaT12-47" vertex="1">
          <mxGeometry y="201" width="520" height="41" as="geometry" />
        </mxCell>
        <mxCell id="SOVXefjvVhWVXNpoaT12-73" style="shape=partialRectangle;html=1;whiteSpace=wrap;connectable=0;overflow=hidden;fillColor=none;top=0;left=0;bottom=0;right=0;pointerEvents=1;" parent="SOVXefjvVhWVXNpoaT12-72" vertex="1">
          <mxGeometry width="80" height="41" as="geometry">
            <mxRectangle width="80" height="41" as="alternateBounds" />
          </mxGeometry>
        </mxCell>
        <mxCell id="SOVXefjvVhWVXNpoaT12-74" style="shape=partialRectangle;html=1;whiteSpace=wrap;connectable=0;overflow=hidden;fillColor=none;top=0;left=0;bottom=0;right=0;pointerEvents=1;" parent="SOVXefjvVhWVXNpoaT12-72" vertex="1">
          <mxGeometry x="80" width="160" height="41" as="geometry">
            <mxRectangle width="160" height="41" as="alternateBounds" />
          </mxGeometry>
        </mxCell>
        <mxCell id="SOVXefjvVhWVXNpoaT12-75" style="shape=partialRectangle;html=1;whiteSpace=wrap;connectable=0;overflow=hidden;fillColor=none;top=0;left=0;bottom=0;right=0;pointerEvents=1;" parent="SOVXefjvVhWVXNpoaT12-72" vertex="1">
          <mxGeometry x="240" width="280" height="41" as="geometry">
            <mxRectangle width="280" height="41" as="alternateBounds" />
          </mxGeometry>
        </mxCell>
        <mxCell id="SOVXefjvVhWVXNpoaT12-81" value="Authentifizierung" style="shape=table;startSize=30;container=1;collapsible=0;childLayout=tableLayout;fillColor=#dae8fc;strokeColor=#6c8ebf;" parent="1" vertex="1">
          <mxGeometry x="-1800" y="80" width="520" height="160" as="geometry" />
        </mxCell>
        <mxCell id="SOVXefjvVhWVXNpoaT12-82" value="" style="shape=partialRectangle;collapsible=0;dropTarget=0;pointerEvents=0;fillColor=none;top=0;left=0;bottom=0;right=0;points=[[0,0.5],[1,0.5]];portConstraint=eastwest;" parent="SOVXefjvVhWVXNpoaT12-81" vertex="1">
          <mxGeometry y="30" width="520" height="50" as="geometry" />
        </mxCell>
        <mxCell id="SOVXefjvVhWVXNpoaT12-83" value="HTTP Methode" style="shape=partialRectangle;html=1;whiteSpace=wrap;connectable=0;overflow=hidden;fillColor=#f5f5f5;top=0;left=0;bottom=0;right=0;pointerEvents=1;fontColor=#333333;strokeColor=#666666;" parent="SOVXefjvVhWVXNpoaT12-82" vertex="1">
          <mxGeometry width="80" height="50" as="geometry">
            <mxRectangle width="80" height="50" as="alternateBounds" />
          </mxGeometry>
        </mxCell>
        <mxCell id="SOVXefjvVhWVXNpoaT12-84" value="Route" style="shape=partialRectangle;html=1;whiteSpace=wrap;connectable=0;overflow=hidden;fillColor=#f5f5f5;top=0;left=0;bottom=0;right=0;pointerEvents=1;fontColor=#333333;strokeColor=#666666;" parent="SOVXefjvVhWVXNpoaT12-82" vertex="1">
          <mxGeometry x="80" width="180" height="50" as="geometry">
            <mxRectangle width="180" height="50" as="alternateBounds" />
          </mxGeometry>
        </mxCell>
        <mxCell id="SOVXefjvVhWVXNpoaT12-85" value="Beschreibung" style="shape=partialRectangle;html=1;whiteSpace=wrap;connectable=0;overflow=hidden;fillColor=#f5f5f5;top=0;left=0;bottom=0;right=0;pointerEvents=1;fontColor=#333333;strokeColor=#666666;" parent="SOVXefjvVhWVXNpoaT12-82" vertex="1">
          <mxGeometry x="260" width="260" height="50" as="geometry">
            <mxRectangle width="260" height="50" as="alternateBounds" />
          </mxGeometry>
        </mxCell>
        <mxCell id="SOVXefjvVhWVXNpoaT12-86" value="" style="shape=partialRectangle;collapsible=0;dropTarget=0;pointerEvents=0;fillColor=none;top=0;left=0;bottom=0;right=0;points=[[0,0.5],[1,0.5]];portConstraint=eastwest;" parent="SOVXefjvVhWVXNpoaT12-81" vertex="1">
          <mxGeometry y="80" width="520" height="40" as="geometry" />
        </mxCell>
        <mxCell id="SOVXefjvVhWVXNpoaT12-87" value="POST" style="shape=partialRectangle;html=1;whiteSpace=wrap;connectable=0;overflow=hidden;fillColor=none;top=0;left=0;bottom=0;right=0;pointerEvents=1;" parent="SOVXefjvVhWVXNpoaT12-86" vertex="1">
          <mxGeometry width="80" height="40" as="geometry">
            <mxRectangle width="80" height="40" as="alternateBounds" />
          </mxGeometry>
        </mxCell>
        <mxCell id="SOVXefjvVhWVXNpoaT12-88" value="/auth/&lt;span style=&quot;color: rgb(32 , 33 , 34) ; font-family: sans-serif ; font-size: 14px&quot;&gt;:username_or_email&lt;/span&gt;" style="shape=partialRectangle;html=1;whiteSpace=wrap;connectable=0;overflow=hidden;fillColor=none;top=0;left=0;bottom=0;right=0;pointerEvents=1;" parent="SOVXefjvVhWVXNpoaT12-86" vertex="1">
          <mxGeometry x="80" width="180" height="40" as="geometry">
            <mxRectangle width="180" height="40" as="alternateBounds" />
          </mxGeometry>
        </mxCell>
        <mxCell id="SOVXefjvVhWVXNpoaT12-89" value="Authentifizierung durchführen mit username oder email und passwort" style="shape=partialRectangle;html=1;whiteSpace=wrap;connectable=0;overflow=hidden;fillColor=none;top=0;left=0;bottom=0;right=0;pointerEvents=1;" parent="SOVXefjvVhWVXNpoaT12-86" vertex="1">
          <mxGeometry x="260" width="260" height="40" as="geometry">
            <mxRectangle width="260" height="40" as="alternateBounds" />
          </mxGeometry>
        </mxCell>
        <mxCell id="SOVXefjvVhWVXNpoaT12-90" value="" style="shape=partialRectangle;collapsible=0;dropTarget=0;pointerEvents=0;fillColor=none;top=0;left=0;bottom=0;right=0;points=[[0,0.5],[1,0.5]];portConstraint=eastwest;" parent="SOVXefjvVhWVXNpoaT12-81" vertex="1">
          <mxGeometry y="120" width="520" height="40" as="geometry" />
        </mxCell>
        <mxCell id="SOVXefjvVhWVXNpoaT12-91" value="DELETE" style="shape=partialRectangle;html=1;whiteSpace=wrap;connectable=0;overflow=hidden;fillColor=none;top=0;left=0;bottom=0;right=0;pointerEvents=1;" parent="SOVXefjvVhWVXNpoaT12-90" vertex="1">
          <mxGeometry width="80" height="40" as="geometry">
            <mxRectangle width="80" height="40" as="alternateBounds" />
          </mxGeometry>
        </mxCell>
        <mxCell id="SOVXefjvVhWVXNpoaT12-92" value="/auth/:id" style="shape=partialRectangle;html=1;whiteSpace=wrap;connectable=0;overflow=hidden;fillColor=none;top=0;left=0;bottom=0;right=0;pointerEvents=1;" parent="SOVXefjvVhWVXNpoaT12-90" vertex="1">
          <mxGeometry x="80" width="180" height="40" as="geometry">
            <mxRectangle width="180" height="40" as="alternateBounds" />
          </mxGeometry>
        </mxCell>
        <mxCell id="SOVXefjvVhWVXNpoaT12-93" value="Logout" style="shape=partialRectangle;html=1;whiteSpace=wrap;connectable=0;overflow=hidden;fillColor=none;top=0;left=0;bottom=0;right=0;pointerEvents=1;" parent="SOVXefjvVhWVXNpoaT12-90" vertex="1">
          <mxGeometry x="260" width="260" height="40" as="geometry">
            <mxRectangle width="260" height="40" as="alternateBounds" />
          </mxGeometry>
        </mxCell>
        <mxCell id="SOVXefjvVhWVXNpoaT12-112" value="Translation" style="shape=table;startSize=30;container=1;collapsible=0;childLayout=tableLayout;fillColor=#dae8fc;strokeColor=#6c8ebf;" parent="1" vertex="1">
          <mxGeometry x="-1800" y="280" width="519.5" height="160" as="geometry" />
        </mxCell>
        <mxCell id="SOVXefjvVhWVXNpoaT12-113" value="" style="shape=partialRectangle;collapsible=0;dropTarget=0;pointerEvents=0;fillColor=none;top=0;left=0;bottom=0;right=0;points=[[0,0.5],[1,0.5]];portConstraint=eastwest;" parent="SOVXefjvVhWVXNpoaT12-112" vertex="1">
          <mxGeometry y="30" width="519.5" height="49" as="geometry" />
        </mxCell>
        <mxCell id="SOVXefjvVhWVXNpoaT12-114" value="HTTP Methode" style="shape=partialRectangle;html=1;whiteSpace=wrap;connectable=0;overflow=hidden;fillColor=#f5f5f5;top=0;left=0;bottom=0;right=0;pointerEvents=1;fontColor=#333333;strokeColor=#666666;" parent="SOVXefjvVhWVXNpoaT12-113" vertex="1">
          <mxGeometry width="126" height="49" as="geometry">
            <mxRectangle width="126" height="49" as="alternateBounds" />
          </mxGeometry>
        </mxCell>
        <mxCell id="SOVXefjvVhWVXNpoaT12-115" value="Route" style="shape=partialRectangle;html=1;whiteSpace=wrap;connectable=0;overflow=hidden;fillColor=#f5f5f5;top=0;left=0;bottom=0;right=0;pointerEvents=1;fontColor=#333333;strokeColor=#666666;" parent="SOVXefjvVhWVXNpoaT12-113" vertex="1">
          <mxGeometry x="126" width="117" height="49" as="geometry">
            <mxRectangle width="117" height="49" as="alternateBounds" />
          </mxGeometry>
        </mxCell>
        <mxCell id="SOVXefjvVhWVXNpoaT12-116" value="Beschreibung" style="shape=partialRectangle;html=1;whiteSpace=wrap;connectable=0;overflow=hidden;fillColor=#f5f5f5;top=0;left=0;bottom=0;right=0;pointerEvents=1;fontColor=#333333;strokeColor=#666666;" parent="SOVXefjvVhWVXNpoaT12-113" vertex="1">
          <mxGeometry x="243" width="277" height="49" as="geometry">
            <mxRectangle width="277" height="49" as="alternateBounds" />
          </mxGeometry>
        </mxCell>
        <mxCell id="SOVXefjvVhWVXNpoaT12-117" value="" style="shape=partialRectangle;collapsible=0;dropTarget=0;pointerEvents=0;fillColor=none;top=0;left=0;bottom=0;right=0;points=[[0,0.5],[1,0.5]];portConstraint=eastwest;" parent="SOVXefjvVhWVXNpoaT12-112" vertex="1">
          <mxGeometry y="79" width="519.5" height="41" as="geometry" />
        </mxCell>
        <mxCell id="SOVXefjvVhWVXNpoaT12-118" value="GET" style="shape=partialRectangle;html=1;whiteSpace=wrap;connectable=0;overflow=hidden;fillColor=none;top=0;left=0;bottom=0;right=0;pointerEvents=1;" parent="SOVXefjvVhWVXNpoaT12-117" vertex="1">
          <mxGeometry width="126" height="41" as="geometry">
            <mxRectangle width="126" height="41" as="alternateBounds" />
          </mxGeometry>
        </mxCell>
        <mxCell id="SOVXefjvVhWVXNpoaT12-119" value="/translation/Vokabel" style="shape=partialRectangle;html=1;whiteSpace=wrap;connectable=0;overflow=hidden;fillColor=none;top=0;left=0;bottom=0;right=0;pointerEvents=1;" parent="SOVXefjvVhWVXNpoaT12-117" vertex="1">
          <mxGeometry x="126" width="117" height="41" as="geometry">
            <mxRectangle width="117" height="41" as="alternateBounds" />
          </mxGeometry>
        </mxCell>
        <mxCell id="SOVXefjvVhWVXNpoaT12-120" value="übersetzung von Vokabelliste holen" style="shape=partialRectangle;html=1;whiteSpace=wrap;connectable=0;overflow=hidden;fillColor=none;top=0;left=0;bottom=0;right=0;pointerEvents=1;" parent="SOVXefjvVhWVXNpoaT12-117" vertex="1">
          <mxGeometry x="243" width="277" height="41" as="geometry">
            <mxRectangle width="277" height="41" as="alternateBounds" />
          </mxGeometry>
        </mxCell>
        <mxCell id="SOVXefjvVhWVXNpoaT12-121" value="" style="shape=partialRectangle;collapsible=0;dropTarget=0;pointerEvents=0;fillColor=none;top=0;left=0;bottom=0;right=0;points=[[0,0.5],[1,0.5]];portConstraint=eastwest;" parent="SOVXefjvVhWVXNpoaT12-112" vertex="1">
          <mxGeometry y="120" width="519.5" height="40" as="geometry" />
        </mxCell>
        <mxCell id="SOVXefjvVhWVXNpoaT12-122" value="GET" style="shape=partialRectangle;html=1;whiteSpace=wrap;connectable=0;overflow=hidden;fillColor=none;top=0;left=0;bottom=0;right=0;pointerEvents=1;" parent="SOVXefjvVhWVXNpoaT12-121" vertex="1">
          <mxGeometry width="126" height="40" as="geometry">
            <mxRectangle width="126" height="40" as="alternateBounds" />
          </mxGeometry>
        </mxCell>
        <mxCell id="SOVXefjvVhWVXNpoaT12-123" value="/translation" style="shape=partialRectangle;html=1;whiteSpace=wrap;connectable=0;overflow=hidden;fillColor=none;top=0;left=0;bottom=0;right=0;pointerEvents=1;" parent="SOVXefjvVhWVXNpoaT12-121" vertex="1">
          <mxGeometry x="126" width="117" height="40" as="geometry">
            <mxRectangle width="117" height="40" as="alternateBounds" />
          </mxGeometry>
        </mxCell>
        <mxCell id="SOVXefjvVhWVXNpoaT12-124" value="übersetzung von deepL holen" style="shape=partialRectangle;html=1;whiteSpace=wrap;connectable=0;overflow=hidden;fillColor=none;top=0;left=0;bottom=0;right=0;pointerEvents=1;" parent="SOVXefjvVhWVXNpoaT12-121" vertex="1">
          <mxGeometry x="243" width="277" height="40" as="geometry">
            <mxRectangle width="277" height="40" as="alternateBounds" />
          </mxGeometry>
        </mxCell>
        <mxCell id="SOVXefjvVhWVXNpoaT12-186" value="Vorname" style="ellipse;whiteSpace=wrap;html=1;" parent="1" vertex="1">
          <mxGeometry x="-1540" y="900" width="100" height="20" as="geometry" />
        </mxCell>
        <mxCell id="SOVXefjvVhWVXNpoaT12-187" value="Nachname" style="ellipse;whiteSpace=wrap;html=1;" parent="1" vertex="1">
          <mxGeometry x="-1540" y="930" width="100" height="20" as="geometry" />
        </mxCell>
        <mxCell id="SOVXefjvVhWVXNpoaT12-188" value="email" style="ellipse;whiteSpace=wrap;html=1;" parent="1" vertex="1">
          <mxGeometry x="-1540" y="990" width="100" height="20" as="geometry" />
        </mxCell>
        <mxCell id="SOVXefjvVhWVXNpoaT12-189" value="Passwort" style="ellipse;whiteSpace=wrap;html=1;" parent="1" vertex="1">
          <mxGeometry x="-1540" y="1020" width="100" height="20" as="geometry" />
        </mxCell>
        <mxCell id="SOVXefjvVhWVXNpoaT12-190" value="id" style="ellipse;whiteSpace=wrap;html=1;" parent="1" vertex="1">
          <mxGeometry x="-1540" y="870" width="100" height="20" as="geometry" />
        </mxCell>
        <mxCell id="SOVXefjvVhWVXNpoaT12-192" value="Benutzer" style="ellipse;whiteSpace=wrap;html=1;aspect=fixed;" parent="1" vertex="1">
          <mxGeometry x="-1360" y="880" width="120" height="120" as="geometry" />
        </mxCell>
        <mxCell id="SOVXefjvVhWVXNpoaT12-193" value="" style="endArrow=none;html=1;rounded=0;exitX=0;exitY=0.5;exitDx=0;exitDy=0;entryX=1;entryY=0.5;entryDx=0;entryDy=0;" parent="1" source="SOVXefjvVhWVXNpoaT12-192" target="SOVXefjvVhWVXNpoaT12-187" edge="1">
          <mxGeometry width="50" height="50" relative="1" as="geometry">
            <mxPoint x="-1160" y="950" as="sourcePoint" />
            <mxPoint x="-1110" y="900" as="targetPoint" />
          </mxGeometry>
        </mxCell>
        <mxCell id="SOVXefjvVhWVXNpoaT12-194" value="" style="endArrow=none;html=1;rounded=0;exitX=1;exitY=0.5;exitDx=0;exitDy=0;entryX=0.019;entryY=0.349;entryDx=0;entryDy=0;entryPerimeter=0;" parent="1" source="SOVXefjvVhWVXNpoaT12-186" target="SOVXefjvVhWVXNpoaT12-192" edge="1">
          <mxGeometry width="50" height="50" relative="1" as="geometry">
            <mxPoint x="-1160" y="950" as="sourcePoint" />
            <mxPoint x="-1110" y="900" as="targetPoint" />
          </mxGeometry>
        </mxCell>
        <mxCell id="SOVXefjvVhWVXNpoaT12-195" value="" style="endArrow=none;html=1;rounded=0;exitX=1;exitY=0.5;exitDx=0;exitDy=0;entryX=0.091;entryY=0.242;entryDx=0;entryDy=0;entryPerimeter=0;" parent="1" source="SOVXefjvVhWVXNpoaT12-190" target="SOVXefjvVhWVXNpoaT12-192" edge="1">
          <mxGeometry width="50" height="50" relative="1" as="geometry">
            <mxPoint x="-1160" y="950" as="sourcePoint" />
            <mxPoint x="-1110" y="900" as="targetPoint" />
          </mxGeometry>
        </mxCell>
        <mxCell id="SOVXefjvVhWVXNpoaT12-196" value="" style="endArrow=none;html=1;rounded=0;exitX=1;exitY=0.5;exitDx=0;exitDy=0;entryX=0.019;entryY=0.625;entryDx=0;entryDy=0;entryPerimeter=0;" parent="1" source="SOVXefjvVhWVXNpoaT12-188" target="SOVXefjvVhWVXNpoaT12-192" edge="1">
          <mxGeometry width="50" height="50" relative="1" as="geometry">
            <mxPoint x="-1160" y="950" as="sourcePoint" />
            <mxPoint x="-1370" y="970" as="targetPoint" />
          </mxGeometry>
        </mxCell>
        <mxCell id="SOVXefjvVhWVXNpoaT12-197" value="" style="endArrow=none;html=1;rounded=0;exitX=1;exitY=0.5;exitDx=0;exitDy=0;entryX=0.082;entryY=0.781;entryDx=0;entryDy=0;entryPerimeter=0;" parent="1" source="SOVXefjvVhWVXNpoaT12-189" target="SOVXefjvVhWVXNpoaT12-192" edge="1">
          <mxGeometry width="50" height="50" relative="1" as="geometry">
            <mxPoint x="-1160" y="950" as="sourcePoint" />
            <mxPoint x="-1366" y="983" as="targetPoint" />
          </mxGeometry>
        </mxCell>
        <mxCell id="SOVXefjvVhWVXNpoaT12-198" value="Vokabel" style="ellipse;whiteSpace=wrap;html=1;aspect=fixed;" parent="1" vertex="1">
          <mxGeometry x="-1080" y="880" width="120" height="120" as="geometry" />
        </mxCell>
        <mxCell id="SOVXefjvVhWVXNpoaT12-199" value="Zuordnung&lt;br&gt;Benutzer_Vokabel&lt;br&gt;" style="ellipse;whiteSpace=wrap;html=1;aspect=fixed;" parent="1" vertex="1">
          <mxGeometry x="-1220" y="1120" width="120" height="120" as="geometry" />
        </mxCell>
        <mxCell id="SOVXefjvVhWVXNpoaT12-210" value="nameEnglish" style="ellipse;whiteSpace=wrap;html=1;" parent="1" vertex="1">
          <mxGeometry x="-960" y="810" width="100" height="20" as="geometry" />
        </mxCell>
        <mxCell id="SOVXefjvVhWVXNpoaT12-211" value="nameGerman" style="ellipse;whiteSpace=wrap;html=1;" parent="1" vertex="1">
          <mxGeometry x="-1070" y="810" width="100" height="20" as="geometry" />
        </mxCell>
        <mxCell id="SOVXefjvVhWVXNpoaT12-214" value="id" style="ellipse;whiteSpace=wrap;html=1;" parent="1" vertex="1">
          <mxGeometry x="-1180" y="810" width="100" height="20" as="geometry" />
        </mxCell>
        <mxCell id="SOVXefjvVhWVXNpoaT12-215" value="" style="endArrow=none;html=1;rounded=0;exitX=0.5;exitY=0;exitDx=0;exitDy=0;entryX=0.5;entryY=1;entryDx=0;entryDy=0;" parent="1" source="SOVXefjvVhWVXNpoaT12-198" target="SOVXefjvVhWVXNpoaT12-211" edge="1">
          <mxGeometry width="50" height="50" relative="1" as="geometry">
            <mxPoint x="-980" y="740" as="sourcePoint" />
            <mxPoint x="-730" y="700" as="targetPoint" />
          </mxGeometry>
        </mxCell>
        <mxCell id="SOVXefjvVhWVXNpoaT12-216" value="" style="endArrow=none;html=1;rounded=0;exitX=0.5;exitY=1;exitDx=0;exitDy=0;entryX=1;entryY=0;entryDx=0;entryDy=0;" parent="1" source="SOVXefjvVhWVXNpoaT12-210" target="SOVXefjvVhWVXNpoaT12-198" edge="1">
          <mxGeometry width="50" height="50" relative="1" as="geometry">
            <mxPoint x="-780" y="750" as="sourcePoint" />
            <mxPoint x="-977.72" y="721.8800000000001" as="targetPoint" />
          </mxGeometry>
        </mxCell>
        <mxCell id="SOVXefjvVhWVXNpoaT12-217" value="" style="endArrow=none;html=1;rounded=0;exitX=0.5;exitY=1;exitDx=0;exitDy=0;" parent="1" source="SOVXefjvVhWVXNpoaT12-214" target="SOVXefjvVhWVXNpoaT12-198" edge="1">
          <mxGeometry width="50" height="50" relative="1" as="geometry">
            <mxPoint x="-770.92" y="890" as="sourcePoint" />
            <mxPoint x="-959.9999999999999" y="849.04" as="targetPoint" />
          </mxGeometry>
        </mxCell>
        <mxCell id="SOVXefjvVhWVXNpoaT12-222" value="Benutzer_ID" style="ellipse;whiteSpace=wrap;html=1;" parent="1" vertex="1">
          <mxGeometry x="-1020" y="1140" width="100" height="20" as="geometry" />
        </mxCell>
        <mxCell id="SOVXefjvVhWVXNpoaT12-223" value="Vokabel_ID" style="ellipse;whiteSpace=wrap;html=1;" parent="1" vertex="1">
          <mxGeometry x="-1020" y="1170" width="100" height="20" as="geometry" />
        </mxCell>
        <mxCell id="7HVum3_ixfd8tOSZu9AS-1" style="edgeStyle=orthogonalEdgeStyle;rounded=0;orthogonalLoop=1;jettySize=auto;html=1;exitX=1;exitY=0.5;exitDx=0;exitDy=0;" edge="1" parent="1" source="SOVXefjvVhWVXNpoaT12-224">
          <mxGeometry relative="1" as="geometry">
            <mxPoint x="-859.333333333333" y="1210.3333333333335" as="targetPoint" />
          </mxGeometry>
        </mxCell>
        <mxCell id="SOVXefjvVhWVXNpoaT12-224" value="Bewertungspunktestand" style="ellipse;whiteSpace=wrap;html=1;" parent="1" vertex="1">
          <mxGeometry x="-1020" y="1200" width="180" height="30" as="geometry" />
        </mxCell>
        <mxCell id="SOVXefjvVhWVXNpoaT12-226" value="id" style="ellipse;whiteSpace=wrap;html=1;" parent="1" vertex="1">
          <mxGeometry x="-1020" y="1110" width="100" height="20" as="geometry" />
        </mxCell>
        <mxCell id="SOVXefjvVhWVXNpoaT12-227" value="" style="endArrow=none;html=1;rounded=0;exitX=1;exitY=0.5;exitDx=0;exitDy=0;entryX=0;entryY=0.5;entryDx=0;entryDy=0;" parent="1" source="SOVXefjvVhWVXNpoaT12-199" target="SOVXefjvVhWVXNpoaT12-223" edge="1">
          <mxGeometry width="50" height="50" relative="1" as="geometry">
            <mxPoint x="-839.9999999999957" y="1180" as="sourcePoint" />
            <mxPoint x="-590" y="1140" as="targetPoint" />
          </mxGeometry>
        </mxCell>
        <mxCell id="SOVXefjvVhWVXNpoaT12-228" value="" style="endArrow=none;html=1;rounded=0;exitX=0;exitY=0.5;exitDx=0;exitDy=0;entryX=0.974;entryY=0.31;entryDx=0;entryDy=0;entryPerimeter=0;" parent="1" source="SOVXefjvVhWVXNpoaT12-222" target="SOVXefjvVhWVXNpoaT12-199" edge="1">
          <mxGeometry width="50" height="50" relative="1" as="geometry">
            <mxPoint x="-640" y="1190" as="sourcePoint" />
            <mxPoint x="-837.7199999999998" y="1161.8799999999999" as="targetPoint" />
          </mxGeometry>
        </mxCell>
        <mxCell id="SOVXefjvVhWVXNpoaT12-229" value="" style="endArrow=none;html=1;rounded=0;exitX=0;exitY=0.5;exitDx=0;exitDy=0;entryX=1;entryY=0;entryDx=0;entryDy=0;" parent="1" source="SOVXefjvVhWVXNpoaT12-226" target="SOVXefjvVhWVXNpoaT12-199" edge="1">
          <mxGeometry width="50" height="50" relative="1" as="geometry">
            <mxPoint x="-640" y="1190" as="sourcePoint" />
            <mxPoint x="-829.0799999999999" y="1149.04" as="targetPoint" />
          </mxGeometry>
        </mxCell>
        <mxCell id="SOVXefjvVhWVXNpoaT12-230" value="" style="endArrow=none;html=1;rounded=0;exitX=0;exitY=0.5;exitDx=0;exitDy=0;entryX=0.982;entryY=0.669;entryDx=0;entryDy=0;entryPerimeter=0;" parent="1" source="SOVXefjvVhWVXNpoaT12-224" target="SOVXefjvVhWVXNpoaT12-199" edge="1">
          <mxGeometry width="50" height="50" relative="1" as="geometry">
            <mxPoint x="-640" y="1190" as="sourcePoint" />
            <mxPoint x="-837.7199999999998" y="1195" as="targetPoint" />
          </mxGeometry>
        </mxCell>
        <mxCell id="SOVXefjvVhWVXNpoaT12-232" value="1 CAt = KAtze" style="rounded=0;whiteSpace=wrap;html=1;" parent="1" vertex="1">
          <mxGeometry x="-960" y="1020" width="120" height="60" as="geometry" />
        </mxCell>
        <mxCell id="SOVXefjvVhWVXNpoaT12-243" value="1 hp&amp;nbsp;&lt;br&gt;2 mahir" style="rounded=0;whiteSpace=wrap;html=1;" parent="1" vertex="1">
          <mxGeometry x="-1420" y="1020" width="120" height="60" as="geometry" />
        </mxCell>
        <mxCell id="SOVXefjvVhWVXNpoaT12-244" value="1 | 2=1&amp;nbsp; 6&lt;br&gt;2 | 2=5&amp;nbsp; 4" style="rounded=0;whiteSpace=wrap;html=1;" parent="1" vertex="1">
          <mxGeometry x="-1220" y="1260" width="120" height="60" as="geometry" />
        </mxCell>
        <mxCell id="7FT5-xa92mVQdmjHT5mG-5" value="1" style="text;html=1;strokeColor=none;fillColor=none;align=center;verticalAlign=middle;whiteSpace=wrap;rounded=0;fontStyle=1" parent="1" vertex="1">
          <mxGeometry x="-1270" y="970" width="60" height="30" as="geometry" />
        </mxCell>
        <mxCell id="7FT5-xa92mVQdmjHT5mG-6" value="" style="rounded=0;whiteSpace=wrap;html=1;" parent="1" vertex="1">
          <mxGeometry x="-1750" y="1370" width="120" height="60" as="geometry" />
        </mxCell>
        <mxCell id="7FT5-xa92mVQdmjHT5mG-7" value="" style="endArrow=none;html=1;rounded=0;exitX=1;exitY=1;exitDx=0;exitDy=0;entryX=0.289;entryY=0.065;entryDx=0;entryDy=0;entryPerimeter=0;startArrow=none;" parent="1" source="7FT5-xa92mVQdmjHT5mG-8" target="SOVXefjvVhWVXNpoaT12-199" edge="1">
          <mxGeometry width="50" height="50" relative="1" as="geometry">
            <mxPoint x="-1160" y="1070" as="sourcePoint" />
            <mxPoint x="-1110" y="1020" as="targetPoint" />
          </mxGeometry>
        </mxCell>
        <mxCell id="7FT5-xa92mVQdmjHT5mG-8" value="hat" style="rhombus;whiteSpace=wrap;html=1;" parent="1" vertex="1">
          <mxGeometry x="-1270" y="1020" width="80" height="80" as="geometry" />
        </mxCell>
        <mxCell id="7FT5-xa92mVQdmjHT5mG-9" value="" style="endArrow=none;html=1;rounded=0;exitX=1;exitY=1;exitDx=0;exitDy=0;entryX=0;entryY=0;entryDx=0;entryDy=0;" parent="1" source="SOVXefjvVhWVXNpoaT12-192" target="7FT5-xa92mVQdmjHT5mG-8" edge="1">
          <mxGeometry width="50" height="50" relative="1" as="geometry">
            <mxPoint x="-1257.5735931288068" y="982.4264068711927" as="sourcePoint" />
            <mxPoint x="-1185.3199999999997" y="1127.8" as="targetPoint" />
          </mxGeometry>
        </mxCell>
        <mxCell id="7FT5-xa92mVQdmjHT5mG-11" value="hat" style="rhombus;whiteSpace=wrap;html=1;" parent="1" vertex="1">
          <mxGeometry x="-1120" y="1010" width="80" height="80" as="geometry" />
        </mxCell>
        <mxCell id="7FT5-xa92mVQdmjHT5mG-12" value="" style="endArrow=none;html=1;rounded=0;entryX=0;entryY=1;entryDx=0;entryDy=0;" parent="1" source="SOVXefjvVhWVXNpoaT12-199" target="7FT5-xa92mVQdmjHT5mG-11" edge="1">
          <mxGeometry width="50" height="50" relative="1" as="geometry">
            <mxPoint x="-1160" y="1070" as="sourcePoint" />
            <mxPoint x="-1110" y="1020" as="targetPoint" />
          </mxGeometry>
        </mxCell>
        <mxCell id="7FT5-xa92mVQdmjHT5mG-14" value="" style="endArrow=none;html=1;rounded=0;entryX=1;entryY=0;entryDx=0;entryDy=0;exitX=0.284;exitY=0.951;exitDx=0;exitDy=0;exitPerimeter=0;" parent="1" source="SOVXefjvVhWVXNpoaT12-198" target="7FT5-xa92mVQdmjHT5mG-11" edge="1">
          <mxGeometry width="50" height="50" relative="1" as="geometry">
            <mxPoint x="-1121.2688721591467" y="1137.326265625103" as="sourcePoint" />
            <mxPoint x="-1090" y="1079.9999999999998" as="targetPoint" />
          </mxGeometry>
        </mxCell>
        <mxCell id="7FT5-xa92mVQdmjHT5mG-16" value="n" style="text;html=1;strokeColor=none;fillColor=none;align=center;verticalAlign=middle;whiteSpace=wrap;rounded=0;" parent="1" vertex="1">
          <mxGeometry x="-1210" y="1090" width="60" height="30" as="geometry" />
        </mxCell>
        <mxCell id="7FT5-xa92mVQdmjHT5mG-17" value="1" style="text;html=1;strokeColor=none;fillColor=none;align=center;verticalAlign=middle;whiteSpace=wrap;rounded=0;fontStyle=1" parent="1" vertex="1">
          <mxGeometry x="-1070" y="1000" width="60" height="30" as="geometry" />
        </mxCell>
        <mxCell id="7FT5-xa92mVQdmjHT5mG-18" value="n" style="text;html=1;strokeColor=none;fillColor=none;align=center;verticalAlign=middle;whiteSpace=wrap;rounded=0;" parent="1" vertex="1">
          <mxGeometry x="-1140" y="1100" width="60" height="30" as="geometry" />
        </mxCell>
        <mxCell id="7FT5-xa92mVQdmjHT5mG-19" value="nameEnglish" style="ellipse;whiteSpace=wrap;html=1;" parent="1" vertex="1">
          <mxGeometry x="-840" y="810" width="100" height="20" as="geometry" />
        </mxCell>
        <mxCell id="7FT5-xa92mVQdmjHT5mG-20" value="" style="endArrow=none;html=1;rounded=0;exitX=0.5;exitY=1;exitDx=0;exitDy=0;entryX=1;entryY=0;entryDx=0;entryDy=0;" parent="1" source="7FT5-xa92mVQdmjHT5mG-19" edge="1">
          <mxGeometry width="50" height="50" relative="1" as="geometry">
            <mxPoint x="-900" y="839.9999999999998" as="sourcePoint" />
            <mxPoint x="-967.5735931288223" y="907.5735931288225" as="targetPoint" />
          </mxGeometry>
        </mxCell>
        <mxCell id="7HVum3_ixfd8tOSZu9AS-2" value="Vokabel" style="shape=table;startSize=30;container=1;collapsible=0;childLayout=tableLayout;fillColor=#dae8fc;strokeColor=#6c8ebf;" vertex="1" parent="1">
          <mxGeometry x="-2400" y="560" width="520" height="320" as="geometry" />
        </mxCell>
        <mxCell id="7HVum3_ixfd8tOSZu9AS-3" value="" style="shape=partialRectangle;collapsible=0;dropTarget=0;pointerEvents=0;fillColor=none;top=0;left=0;bottom=0;right=0;points=[[0,0.5],[1,0.5]];portConstraint=eastwest;" vertex="1" parent="7HVum3_ixfd8tOSZu9AS-2">
          <mxGeometry y="30" width="520" height="44" as="geometry" />
        </mxCell>
        <mxCell id="7HVum3_ixfd8tOSZu9AS-4" value="HTTP Methode" style="shape=partialRectangle;html=1;whiteSpace=wrap;connectable=0;overflow=hidden;fillColor=#f5f5f5;top=0;left=0;bottom=0;right=0;pointerEvents=1;fontColor=#333333;strokeColor=#666666;" vertex="1" parent="7HVum3_ixfd8tOSZu9AS-3">
          <mxGeometry width="80" height="44" as="geometry">
            <mxRectangle width="80" height="44" as="alternateBounds" />
          </mxGeometry>
        </mxCell>
        <mxCell id="7HVum3_ixfd8tOSZu9AS-5" value="Route" style="shape=partialRectangle;html=1;whiteSpace=wrap;connectable=0;overflow=hidden;fillColor=#f5f5f5;top=0;left=0;bottom=0;right=0;pointerEvents=1;fontColor=#333333;strokeColor=#666666;" vertex="1" parent="7HVum3_ixfd8tOSZu9AS-3">
          <mxGeometry x="80" width="160" height="44" as="geometry">
            <mxRectangle width="160" height="44" as="alternateBounds" />
          </mxGeometry>
        </mxCell>
        <mxCell id="7HVum3_ixfd8tOSZu9AS-6" value="Beschreibung" style="shape=partialRectangle;html=1;whiteSpace=wrap;connectable=0;overflow=hidden;fillColor=#f5f5f5;top=0;left=0;bottom=0;right=0;pointerEvents=1;fontColor=#333333;strokeColor=#666666;" vertex="1" parent="7HVum3_ixfd8tOSZu9AS-3">
          <mxGeometry x="240" width="280" height="44" as="geometry">
            <mxRectangle width="280" height="44" as="alternateBounds" />
          </mxGeometry>
        </mxCell>
        <mxCell id="7HVum3_ixfd8tOSZu9AS-7" value="" style="shape=partialRectangle;collapsible=0;dropTarget=0;pointerEvents=0;fillColor=none;top=0;left=0;bottom=0;right=0;points=[[0,0.5],[1,0.5]];portConstraint=eastwest;" vertex="1" parent="7HVum3_ixfd8tOSZu9AS-2">
          <mxGeometry y="74" width="520" height="39" as="geometry" />
        </mxCell>
        <mxCell id="7HVum3_ixfd8tOSZu9AS-8" value="POST" style="shape=partialRectangle;html=1;whiteSpace=wrap;connectable=0;overflow=hidden;fillColor=none;top=0;left=0;bottom=0;right=0;pointerEvents=1;" vertex="1" parent="7HVum3_ixfd8tOSZu9AS-7">
          <mxGeometry width="80" height="39" as="geometry">
            <mxRectangle width="80" height="39" as="alternateBounds" />
          </mxGeometry>
        </mxCell>
        <mxCell id="7HVum3_ixfd8tOSZu9AS-9" value="/Vokabel" style="shape=partialRectangle;html=1;whiteSpace=wrap;connectable=0;overflow=hidden;fillColor=none;top=0;left=0;bottom=0;right=0;pointerEvents=1;" vertex="1" parent="7HVum3_ixfd8tOSZu9AS-7">
          <mxGeometry x="80" width="160" height="39" as="geometry">
            <mxRectangle width="160" height="39" as="alternateBounds" />
          </mxGeometry>
        </mxCell>
        <mxCell id="7HVum3_ixfd8tOSZu9AS-10" value="Vokabel wird erstellt" style="shape=partialRectangle;html=1;whiteSpace=wrap;connectable=0;overflow=hidden;fillColor=none;top=0;left=0;bottom=0;right=0;pointerEvents=1;" vertex="1" parent="7HVum3_ixfd8tOSZu9AS-7">
          <mxGeometry x="240" width="280" height="39" as="geometry">
            <mxRectangle width="280" height="39" as="alternateBounds" />
          </mxGeometry>
        </mxCell>
        <mxCell id="7HVum3_ixfd8tOSZu9AS-11" value="" style="shape=partialRectangle;collapsible=0;dropTarget=0;pointerEvents=0;fillColor=none;top=0;left=0;bottom=0;right=0;points=[[0,0.5],[1,0.5]];portConstraint=eastwest;" vertex="1" parent="7HVum3_ixfd8tOSZu9AS-2">
          <mxGeometry y="113" width="520" height="37" as="geometry" />
        </mxCell>
        <mxCell id="7HVum3_ixfd8tOSZu9AS-12" value="PUT" style="shape=partialRectangle;html=1;whiteSpace=wrap;connectable=0;overflow=hidden;fillColor=none;top=0;left=0;bottom=0;right=0;pointerEvents=1;" vertex="1" parent="7HVum3_ixfd8tOSZu9AS-11">
          <mxGeometry width="80" height="37" as="geometry">
            <mxRectangle width="80" height="37" as="alternateBounds" />
          </mxGeometry>
        </mxCell>
        <mxCell id="7HVum3_ixfd8tOSZu9AS-13" value="/Vokabel/:id" style="shape=partialRectangle;html=1;whiteSpace=wrap;connectable=0;overflow=hidden;fillColor=none;top=0;left=0;bottom=0;right=0;pointerEvents=1;" vertex="1" parent="7HVum3_ixfd8tOSZu9AS-11">
          <mxGeometry x="80" width="160" height="37" as="geometry">
            <mxRectangle width="160" height="37" as="alternateBounds" />
          </mxGeometry>
        </mxCell>
        <mxCell id="7HVum3_ixfd8tOSZu9AS-14" value="Vokabeldaten ändern" style="shape=partialRectangle;html=1;whiteSpace=wrap;connectable=0;overflow=hidden;fillColor=none;top=0;left=0;bottom=0;right=0;pointerEvents=1;" vertex="1" parent="7HVum3_ixfd8tOSZu9AS-11">
          <mxGeometry x="240" width="280" height="37" as="geometry">
            <mxRectangle width="280" height="37" as="alternateBounds" />
          </mxGeometry>
        </mxCell>
        <mxCell id="7HVum3_ixfd8tOSZu9AS-15" value="" style="shape=partialRectangle;collapsible=0;dropTarget=0;pointerEvents=0;fillColor=none;top=0;left=0;bottom=0;right=0;points=[[0,0.5],[1,0.5]];portConstraint=eastwest;" vertex="1" parent="7HVum3_ixfd8tOSZu9AS-2">
          <mxGeometry y="150" width="520" height="38" as="geometry" />
        </mxCell>
        <mxCell id="7HVum3_ixfd8tOSZu9AS-16" value="GET" style="shape=partialRectangle;html=1;whiteSpace=wrap;connectable=0;overflow=hidden;fillColor=none;top=0;left=0;bottom=0;right=0;pointerEvents=1;" vertex="1" parent="7HVum3_ixfd8tOSZu9AS-15">
          <mxGeometry width="80" height="38" as="geometry">
            <mxRectangle width="80" height="38" as="alternateBounds" />
          </mxGeometry>
        </mxCell>
        <mxCell id="7HVum3_ixfd8tOSZu9AS-17" value="/Vokabel/:id" style="shape=partialRectangle;html=1;whiteSpace=wrap;connectable=0;overflow=hidden;fillColor=none;top=0;left=0;bottom=0;right=0;pointerEvents=1;" vertex="1" parent="7HVum3_ixfd8tOSZu9AS-15">
          <mxGeometry x="80" width="160" height="38" as="geometry">
            <mxRectangle width="160" height="38" as="alternateBounds" />
          </mxGeometry>
        </mxCell>
        <mxCell id="7HVum3_ixfd8tOSZu9AS-18" value="Vokabeldaten einer bestimmten Vokabel holen" style="shape=partialRectangle;html=1;whiteSpace=wrap;connectable=0;overflow=hidden;fillColor=none;top=0;left=0;bottom=0;right=0;pointerEvents=1;" vertex="1" parent="7HVum3_ixfd8tOSZu9AS-15">
          <mxGeometry x="240" width="280" height="38" as="geometry">
            <mxRectangle width="280" height="38" as="alternateBounds" />
          </mxGeometry>
        </mxCell>
        <mxCell id="7HVum3_ixfd8tOSZu9AS-19" value="" style="shape=partialRectangle;collapsible=0;dropTarget=0;pointerEvents=0;fillColor=none;top=0;left=0;bottom=0;right=0;points=[[0,0.5],[1,0.5]];portConstraint=eastwest;" vertex="1" parent="7HVum3_ixfd8tOSZu9AS-2">
          <mxGeometry y="188" width="520" height="46" as="geometry" />
        </mxCell>
        <mxCell id="7HVum3_ixfd8tOSZu9AS-20" value="DELETE" style="shape=partialRectangle;html=1;whiteSpace=wrap;connectable=0;overflow=hidden;fillColor=none;top=0;left=0;bottom=0;right=0;pointerEvents=1;" vertex="1" parent="7HVum3_ixfd8tOSZu9AS-19">
          <mxGeometry width="80" height="46" as="geometry">
            <mxRectangle width="80" height="46" as="alternateBounds" />
          </mxGeometry>
        </mxCell>
        <mxCell id="7HVum3_ixfd8tOSZu9AS-21" value="/Vokabel/:id" style="shape=partialRectangle;html=1;whiteSpace=wrap;connectable=0;overflow=hidden;fillColor=none;top=0;left=0;bottom=0;right=0;pointerEvents=1;" vertex="1" parent="7HVum3_ixfd8tOSZu9AS-19">
          <mxGeometry x="80" width="160" height="46" as="geometry">
            <mxRectangle width="160" height="46" as="alternateBounds" />
          </mxGeometry>
        </mxCell>
        <mxCell id="7HVum3_ixfd8tOSZu9AS-22" value="Vokabel wird gelöscht" style="shape=partialRectangle;html=1;whiteSpace=wrap;connectable=0;overflow=hidden;fillColor=none;top=0;left=0;bottom=0;right=0;pointerEvents=1;" vertex="1" parent="7HVum3_ixfd8tOSZu9AS-19">
          <mxGeometry x="240" width="280" height="46" as="geometry">
            <mxRectangle width="280" height="46" as="alternateBounds" />
          </mxGeometry>
        </mxCell>
        <mxCell id="7HVum3_ixfd8tOSZu9AS-23" value="" style="shape=partialRectangle;collapsible=0;dropTarget=0;pointerEvents=0;fillColor=none;top=0;left=0;bottom=0;right=0;points=[[0,0.5],[1,0.5]];portConstraint=eastwest;" vertex="1" parent="7HVum3_ixfd8tOSZu9AS-2">
          <mxGeometry y="234" width="520" height="42" as="geometry" />
        </mxCell>
        <mxCell id="7HVum3_ixfd8tOSZu9AS-24" value="" style="shape=partialRectangle;html=1;whiteSpace=wrap;connectable=0;overflow=hidden;fillColor=none;top=0;left=0;bottom=0;right=0;pointerEvents=1;" vertex="1" parent="7HVum3_ixfd8tOSZu9AS-23">
          <mxGeometry width="80" height="42" as="geometry">
            <mxRectangle width="80" height="42" as="alternateBounds" />
          </mxGeometry>
        </mxCell>
        <mxCell id="7HVum3_ixfd8tOSZu9AS-25" value="" style="shape=partialRectangle;html=1;whiteSpace=wrap;connectable=0;overflow=hidden;fillColor=none;top=0;left=0;bottom=0;right=0;pointerEvents=1;" vertex="1" parent="7HVum3_ixfd8tOSZu9AS-23">
          <mxGeometry x="80" width="160" height="42" as="geometry">
            <mxRectangle width="160" height="42" as="alternateBounds" />
          </mxGeometry>
        </mxCell>
        <mxCell id="7HVum3_ixfd8tOSZu9AS-26" value="" style="shape=partialRectangle;html=1;whiteSpace=wrap;connectable=0;overflow=hidden;fillColor=none;top=0;left=0;bottom=0;right=0;pointerEvents=1;" vertex="1" parent="7HVum3_ixfd8tOSZu9AS-23">
          <mxGeometry x="240" width="280" height="42" as="geometry">
            <mxRectangle width="280" height="42" as="alternateBounds" />
          </mxGeometry>
        </mxCell>
        <mxCell id="7HVum3_ixfd8tOSZu9AS-27" style="shape=partialRectangle;collapsible=0;dropTarget=0;pointerEvents=0;fillColor=none;top=0;left=0;bottom=0;right=0;points=[[0,0.5],[1,0.5]];portConstraint=eastwest;" vertex="1" parent="7HVum3_ixfd8tOSZu9AS-2">
          <mxGeometry y="276" width="520" height="44" as="geometry" />
        </mxCell>
        <mxCell id="7HVum3_ixfd8tOSZu9AS-28" style="shape=partialRectangle;html=1;whiteSpace=wrap;connectable=0;overflow=hidden;fillColor=none;top=0;left=0;bottom=0;right=0;pointerEvents=1;" vertex="1" parent="7HVum3_ixfd8tOSZu9AS-27">
          <mxGeometry width="80" height="44" as="geometry">
            <mxRectangle width="80" height="44" as="alternateBounds" />
          </mxGeometry>
        </mxCell>
        <mxCell id="7HVum3_ixfd8tOSZu9AS-29" style="shape=partialRectangle;html=1;whiteSpace=wrap;connectable=0;overflow=hidden;fillColor=none;top=0;left=0;bottom=0;right=0;pointerEvents=1;" vertex="1" parent="7HVum3_ixfd8tOSZu9AS-27">
          <mxGeometry x="80" width="160" height="44" as="geometry">
            <mxRectangle width="160" height="44" as="alternateBounds" />
          </mxGeometry>
        </mxCell>
        <mxCell id="7HVum3_ixfd8tOSZu9AS-30" style="shape=partialRectangle;html=1;whiteSpace=wrap;connectable=0;overflow=hidden;fillColor=none;top=0;left=0;bottom=0;right=0;pointerEvents=1;" vertex="1" parent="7HVum3_ixfd8tOSZu9AS-27">
          <mxGeometry x="240" width="280" height="44" as="geometry">
            <mxRectangle width="280" height="44" as="alternateBounds" />
          </mxGeometry>
        </mxCell>
        <mxCell id="7HVum3_ixfd8tOSZu9AS-32" value="Username" style="ellipse;whiteSpace=wrap;html=1;" vertex="1" parent="1">
          <mxGeometry x="-1540" y="960" width="100" height="20" as="geometry" />
        </mxCell>
        <mxCell id="7HVum3_ixfd8tOSZu9AS-33" value="" style="endArrow=none;html=1;rounded=0;exitX=1;exitY=0.5;exitDx=0;exitDy=0;" edge="1" parent="1" source="7HVum3_ixfd8tOSZu9AS-32" target="SOVXefjvVhWVXNpoaT12-192">
          <mxGeometry width="50" height="50" relative="1" as="geometry">
            <mxPoint x="-1890" y="1010" as="sourcePoint" />
            <mxPoint x="-1840" y="960" as="targetPoint" />
          </mxGeometry>
        </mxCell>
      </root>
    </mxGraphModel>
  </diagram>
</mxfile>
